<svg width="34" height="15" viewBox="0 0 34 15" fill="none" xmlns="http://www.w3.org/2000/svg">
<path d="M12.8023 5.35442C12.7656 5.24643 12.6982 5.15154 12.6082 5.08146C12.5182 5.01138 12.4097 4.96919 12.296 4.96009L8.9704 4.69584L7.53132 1.51026C7.48548 1.40766 7.41094 1.32051 7.31668 1.25934C7.22241 1.19817 7.11246 1.16559 7.00009 1.16553C6.88772 1.16547 6.77773 1.19793 6.6834 1.25899C6.58907 1.32006 6.51442 1.40712 6.46848 1.50968L5.0294 4.69584L1.70382 4.96009C1.59208 4.96894 1.48526 5.0098 1.39614 5.07777C1.30702 5.14574 1.23936 5.23795 1.20127 5.34336C1.16318 5.44877 1.15626 5.56293 1.18135 5.67217C1.20644 5.78141 1.26247 5.88111 1.34273 5.95934L3.80031 8.35509L2.93115 12.1188C2.90476 12.2327 2.91322 12.3519 2.95543 12.461C2.99764 12.57 3.07165 12.6639 3.16787 12.7303C3.26408 12.7968 3.37805 12.8328 3.49499 12.8337C3.61193 12.8346 3.72643 12.8003 3.82365 12.7353L6.9999 10.6178L10.1761 12.7353C10.2755 12.8013 10.3927 12.8353 10.5119 12.8327C10.6312 12.83 10.7468 12.791 10.8431 12.7207C10.9395 12.6505 11.0121 12.5524 11.051 12.4396C11.09 12.3269 11.0935 12.205 11.0611 12.0902L9.99415 8.35684L12.6401 5.97568C12.8134 5.81934 12.877 5.57551 12.8023 5.35442Z" fill="#FF7A00"/>
<path d="M19.832 7.044C21.048 7.044 21.932 7.264 22.484 7.704C23.044 8.136 23.324 8.744 23.324 9.528C23.324 10.016 23.208 10.452 22.976 10.836C22.752 11.22 22.412 11.524 21.956 11.748C21.5 11.964 20.94 12.072 20.276 12.072C19.676 12.072 19.104 11.976 18.56 11.784C18.024 11.584 17.592 11.32 17.264 10.992L17.684 10.308C17.964 10.596 18.332 10.832 18.788 11.016C19.244 11.192 19.736 11.28 20.264 11.28C20.96 11.28 21.496 11.124 21.872 10.812C22.256 10.5 22.448 10.084 22.448 9.564C22.448 8.988 22.232 8.552 21.8 8.256C21.376 7.96 20.656 7.812 19.64 7.812H17.852L18.284 3.6H22.88V4.368H19.04L18.752 7.044H19.832ZM25.0689 12.06C24.8929 12.06 24.7409 11.996 24.6129 11.868C24.4929 11.74 24.4329 11.584 24.4329 11.4C24.4329 11.216 24.4929 11.064 24.6129 10.944C24.7409 10.816 24.8929 10.752 25.0689 10.752C25.2449 10.752 25.3969 10.816 25.5249 10.944C25.6529 11.064 25.7169 11.216 25.7169 11.4C25.7169 11.584 25.6529 11.74 25.5249 11.868C25.3969 11.996 25.2449 12.06 25.0689 12.06ZM29.937 7.2C30.817 7.248 31.485 7.488 31.941 7.92C32.405 8.344 32.637 8.9 32.637 9.588C32.637 10.068 32.521 10.496 32.289 10.872C32.057 11.24 31.713 11.532 31.257 11.748C30.801 11.964 30.245 12.072 29.589 12.072C28.981 12.072 28.405 11.976 27.861 11.784C27.325 11.584 26.893 11.32 26.565 10.992L26.985 10.308C27.265 10.596 27.637 10.832 28.101 11.016C28.565 11.192 29.061 11.28 29.589 11.28C30.277 11.28 30.809 11.132 31.185 10.836C31.561 10.532 31.749 10.116 31.749 9.588C31.749 9.068 31.561 8.66 31.185 8.364C30.809 8.068 30.241 7.92 29.481 7.92H28.881V7.284L31.209 4.368H26.913V3.6H32.313V4.212L29.937 7.2Z" fill="#373737"/>
</svg>
